<?xml version="1.0" encoding="UTF-8" standalone="no"?>
<!-- Created with Inkscape (http://www.inkscape.org/) -->

<svg
   version="1.1"
   id="svg9"
   xml:space="preserve"
   width="491.81213"
   height="213.56279"
   viewBox="0 0 491.81213 213.56279"
   sodipodi:docname="istria-villas-logo.svg"
   inkscape:version="1.1 (c68e22c387, 2021-05-23)"
   xmlns:inkscape="http://www.inkscape.org/namespaces/inkscape"
   xmlns:sodipodi="http://sodipodi.sourceforge.net/DTD/sodipodi-0.dtd"
   xmlns="http://www.w3.org/2000/svg"
   xmlns:svg="http://www.w3.org/2000/svg"><defs
     id="defs13"><clipPath
       clipPathUnits="userSpaceOnUse"
       id="clipPath23"><path
         d="M 0,1080 H 1920 V 0 H 0 Z"
         id="path21" /></clipPath></defs><sodipodi:namedview
     id="namedview11"
     pagecolor="#505050"
     bordercolor="#eeeeee"
     borderopacity="1"
     inkscape:pageshadow="0"
     inkscape:pageopacity="0"
     inkscape:pagecheckerboard="0"
     showgrid="false"
     inkscape:zoom="0.79375"
     inkscape:cx="245.03937"
     inkscape:cy="136.69291"
     inkscape:window-width="2560"
     inkscape:window-height="1361"
     inkscape:window-x="-9"
     inkscape:window-y="-9"
     inkscape:window-maximized="1"
     inkscape:current-layer="g19" /><g
     id="g15"
     inkscape:groupmode="layer"
     inkscape:label="Istria_villas_logo"
     transform="matrix(1.3333333,0,0,-1.3333333,-1034.0936,856.76371)"><g
       id="g17"><g
         id="g19"
         clip-path="url(#clipPath23)"><g
           id="g25"
           transform="translate(1094.2823,507.0523)"><path
             d="m 0,0 c 0.613,-2.12 0.981,-7.687 0.981,-14.18 0,-4.502 -0.092,-7.904 -0.359,-10.104 h 21.35 C 10.91,-22.829 4.733,-14.507 3.068,0 Z m 40.075,-24.284 c 6.027,4.056 10.072,10.998 10.072,19.645 0,10.469 -4.904,16.432 -17.287,21.862 l -11.279,4.904 c -6.5,2.788 -10.547,7.557 -10.547,13.52 0,6.745 3.208,11.331 8.242,13.27 H 8.859 C 3.617,44.806 0.981,38.4 0.981,31.54 0.981,22.66 5.64,16.034 14.468,12.191 L 26.974,6.756 C 34.209,3.711 39.113,-1.589 39.113,-8.613 39.003,-17.098 34.92,-23.065 28.243,-24.284 Z M 31.559,48.917 C 38.633,46.443 43.526,39.749 43.526,30.61 h 3.189 c -0.615,1.987 -0.736,3.578 -0.736,8.878 0,4.157 0.103,7.298 0.313,9.429 h -2.696 c -0.263,-0.014 -0.53,-0.018 -0.804,-0.018 -0.128,0 -0.261,0.004 -0.4,0.018 z"
             style="fill:#000000;fill-opacity:1;fill-rule:nonzero;stroke:none"
             id="path27" /></g><g
           id="g29"
           transform="translate(1087.0894,486.0792)"><path
             d="M 0,0 H -0.613 C -2.451,0 -3.8,0.736 -4.904,2.206 -6.006,3.8 -7.234,6.13 -8.46,9.196 l -25.87,61.917 h -3.187 L -63.143,9.441 C -64.371,6.375 -65.594,4.047 -66.822,2.33 -67.926,0.736 -69.273,0 -70.866,0 h -0.492 l -3.187,0.245 v -3.556 h 21.211 v 3.556 l -5.886,-0.368 c -4.046,-0.368 -2.819,4.291 -0.98,8.583 l 5.64,13.734 h 28.589 l 6.006,-14.47 C -18.371,3.923 -17.509,-0.368 -22.416,0 l -6.008,0.245 V -3.311 H 4.047 v 3.556 z m -53.09,25.626 12.754,30.898 12.893,-30.898 z"
             style="fill:#000000;fill-opacity:1;fill-rule:nonzero;stroke:none"
             id="path31" /></g><g
           id="g33"
           transform="translate(954.0154,482.7687)"><path
             d="m 0,0 h 38.99 c 8.704,0 13.732,-0.123 15.202,-0.368 V 20.966 H 51.005 C 51.005,9.562 45.117,3.432 33.841,3.432 H 19.985 c -0.981,0 -1.472,0.491 -1.472,1.593 V 67.19 c 0,1.472 0.983,2.7 2.453,2.574 l 6.006,-0.245 v 3.682 H 0 v -3.682 l 4.781,0.245 C 6.13,69.89 7.111,68.536 7.111,67.19 V 6.006 C 7.111,4.536 6.621,3.311 5.27,3.311 L 0,3.679 Z"
             style="fill:#000000;fill-opacity:1;fill-rule:nonzero;stroke:none"
             id="path35" /></g><g
           id="g37"
           transform="translate(893.6918,482.7687)"><path
             d="m 0,0 h 38.99 c 8.704,0 13.732,-0.123 15.199,-0.368 V 20.966 H 51.005 C 51.005,9.562 45.117,3.432 33.841,3.432 H 19.985 c -0.981,0 -1.472,0.491 -1.472,1.593 V 67.19 c 0,1.472 0.981,2.7 2.453,2.574 l 6.006,-0.245 v 3.682 H 0 v -3.682 l 4.781,0.245 C 6.13,69.89 7.111,68.536 7.111,67.19 V 6.006 C 7.111,4.536 6.621,3.311 5.27,3.311 L 0,3.679 Z"
             style="fill:#000000;fill-opacity:1;fill-rule:nonzero;stroke:none"
             id="path39" /></g><g
           id="g41"
           transform="translate(858.3787,482.7687)"><path
             d="M 0,0 H 25.749 V 3.555 L 20.966,3.311 c -1.594,0 -2.451,0.857 -2.451,2.695 V 67.19 c 0,1.472 0.981,2.7 2.451,2.574 l 4.783,-0.245 v 3.682 H 0 v -3.682 l 4.783,0.245 C 6.377,69.89 7.111,68.536 7.111,67.19 V 6.006 C 7.111,4.168 6.377,3.311 4.783,3.311 L 0,3.555 Z"
             style="fill:#000000;fill-opacity:1;fill-rule:nonzero;stroke:none"
             id="path43" /></g><g
           id="g45"
           transform="translate(840.9062,555.9669)"><path
             d="m 0,0 -24.384,-57.001 -22.192,50.668 c -0.491,1.337 0,2.922 1.105,2.922 l 6.495,-0.245 V 0 h -26.36 v -3.656 l 3.435,0.245 c 1.102,0 1.961,-0.974 2.819,-2.801 l 29.06,-66.986 h 3.187 L 4.678,0 Z"
             style="fill:#000000;fill-opacity:1;fill-rule:nonzero;stroke:none"
             id="path47" /></g><g
           id="g49"
           transform="translate(1116.6797,574.1368)"><path
             d="m 0,0 c 0,-3.889 2.919,-6.333 6.777,-6.333 3.857,0 6.776,2.444 6.776,6.333 0,3.999 -2.919,6.443 -6.776,6.443 C 2.919,6.443 0,3.887 0,0"
             style="fill:#ea2427;fill-opacity:1;fill-rule:nonzero;stroke:none"
             id="path51" /></g><g
           id="g53"
           transform="translate(1106.4938,571.1278)"><path
             d="m 0,0 h -0.615 c -1.85,0 -3.203,0.741 -4.31,2.218 -1.111,1.603 -2.341,3.942 -3.576,7.019 L -34.49,71.445 h -3.201 L -68.715,-3.324 h 3.334 c 14.077,34.121 11.153,26.901 24.857,60.108 C -28.717,28.488 -29.723,31.04 -20.058,7.76 -18.455,3.942 -17.594,-0.368 -22.521,0 l -6.036,0.247 V -3.324 H 4.065 v 3.571 z"
             style="fill:#aeaead;fill-opacity:1;fill-rule:nonzero;stroke:none"
             id="path55" /></g><g
           id="g57"
           transform="translate(1000.6666,567.8035)"><path
             d="M 0,0 H 25.868 V 3.571 L 21.064,3.324 c -1.6,0 -2.464,0.862 -2.464,2.712 v 61.462 c 0,1.48 0.985,2.712 2.464,2.588 l 4.804,-0.246 v 3.694 H 0 V 69.84 l 4.804,0.246 C 6.406,70.21 7.145,68.854 7.145,67.498 V 6.036 C 7.145,4.186 6.406,3.324 4.804,3.324 L 0,3.571 Z"
             style="fill:#aeaead;fill-opacity:1;fill-rule:nonzero;stroke:none"
             id="path59" /></g><g
           id="g61"
           transform="translate(931.8124,567.8035)"><path
             d="M 0,0 H 27.098 V 3.571 L 21.062,3.324 c -1.6,0 -2.462,0.862 -2.462,2.712 v 29.193 h 5.174 c 10.222,0 20.568,-5.049 20.568,-18.356 v -4.06 c 0,-1.482 0.123,-3.082 0.247,-4.683 C 44.712,4.804 45.327,1.971 46.313,0 H 63.065 V 3.695 C 62.08,3.078 59.985,3.078 59,3.448 c -2.462,0.37 -3.571,7.517 -3.571,11.578 0,13.92 -9.484,21.556 -16.752,21.556 8.868,2.341 15.025,8.869 15.025,17.367 0,13.796 -7.757,19.585 -25.987,19.585 L 0,73.534 V 69.84 l 4.433,0.246 C 6.404,70.21 7.145,68.854 7.145,67.498 V 6.036 C 7.145,4.186 6.404,3.324 4.804,3.324 L 0,3.571 Z m 18.6,38.553 v 30.301 c 0,0.862 0.491,1.232 1.477,1.232 h 7.638 c 9.855,0 14.412,-4.803 14.412,-16.137 0,-9.854 -4.681,-15.396 -12.073,-15.396 z"
             style="fill:#aeaead;fill-opacity:1;fill-rule:nonzero;stroke:none"
             id="path63" /></g><g
           id="g65"
           transform="translate(865.0527,622.4936)"><path
             d="m 0,0 h 3.201 c 0,10.471 4.312,15.52 15.275,15.52 h 5.051 c 0.985,0 1.477,-0.494 1.477,-1.48 v -62.326 c 0,-1.603 -0.862,-3.08 -2.341,-3.08 l -6.652,0.247 v -3.571 h 29.44 v 3.571 l -6.528,-0.247 c -1.603,0 -2.465,0.865 -2.465,2.712 v 62.818 c 0.124,0.862 0.618,1.356 1.48,1.356 H 43.11 C 54.073,15.52 58.261,10.471 58.261,0 h 3.201 V 19.215 C 60.971,19.091 59.368,18.968 56.537,18.968 H 4.927 c -2.341,0 -4.065,0.123 -4.927,0.247 z"
             style="fill:#aeaead;fill-opacity:1;fill-rule:nonzero;stroke:none"
             id="path67" /></g><g
           id="g69"
           transform="translate(775.7491,567.8035)"><path
             d="M 0,0 H 25.868 V 3.571 L 21.064,3.324 c -1.602,0 -2.464,0.862 -2.464,2.712 v 61.462 c 0,1.48 0.985,2.712 2.464,2.588 l 4.804,-0.246 v 3.694 H 0 V 69.84 l 4.804,0.246 C 6.406,70.21 7.145,68.854 7.145,67.498 V 6.036 C 7.145,4.186 6.406,3.324 4.804,3.324 L 0,3.571 Z"
             style="fill:#aeaead;fill-opacity:1;fill-rule:nonzero;stroke:none"
             id="path71" /></g><g
           id="g73"
           transform="translate(810.9776,592.1967)"><path
             d="m 0,0 c 0.617,-2.128 0.985,-7.721 0.985,-14.244 0,-4.525 -0.091,-7.941 -0.361,-10.152 H 22.073 C 10.961,-22.935 4.751,-14.575 3.08,0 Z m 40.261,-24.396 c 6.054,4.077 10.117,11.048 10.117,19.739 0,10.515 -4.927,16.507 -17.367,21.963 L 21.68,22.231 c -6.528,2.793 -10.594,7.59 -10.594,13.58 0,6.777 3.222,11.382 8.28,13.33 H 8.901 C 3.633,45.017 0.985,38.583 0.985,31.682 0.985,22.766 5.666,16.11 14.534,12.248 L 27.1,6.788 c 7.266,-3.059 12.194,-8.386 12.194,-15.437 -0.11,-8.526 -4.212,-14.519 -10.92,-15.747 z m -8.556,73.537 c 7.106,-2.483 12.022,-9.209 12.022,-18.389 h 3.203 c -0.617,1.996 -0.741,3.594 -0.741,8.919 0,4.179 0.105,7.335 0.316,9.47 h -2.707 c -0.263,-0.014 -0.535,-0.018 -0.81,-0.018 -0.128,0 -0.263,0.004 -0.4,0.018 z"
             style="fill:#aeaead;fill-opacity:1;fill-rule:nonzero;stroke:none"
             id="path75" /></g></g></g></g></svg>
